<svg xmlns="http://www.w3.org/2000/svg" width="30" height="20" viewBox="0 0 30 20">
    <g fill="none" fill-rule="evenodd">
        <rect width="30" height="20" fill="#48A0DC" rx="2"/>
        <path fill="#FFF" d="M12.515 6.355l-1.091 7.268h1.745l1.09-7.268h-1.744zm5.263 2.96c-.61-.323-.984-.54-.984-.87.008-.299.316-.606 1.006-.606.567-.014.983.127 1.3.27l.158.075.236-1.52a4.15 4.15 0 0 0-1.565-.3c-1.723 0-2.936.958-2.944 2.33-.014 1.01.869 1.572 1.53 1.909.674.344.904.57.904.876-.007.472-.546.69-1.048.69-.696 0-1.07-.113-1.637-.374l-.23-.113-.244 1.58c.409.196 1.163.368 1.946.375 1.831 0 3.023-.944 3.037-2.404.007-.803-.46-1.417-1.465-1.918zm6.19-2.938h-1.35c-.417 0-.733.127-.912.584l-2.592 6.661h1.83l.505-1.442h2.049l.261 1.448h1.616l-1.407-7.25zm-2.01 4.348c.034.004.702-2.354.702-2.354l.532 2.354h-1.235zM9.965 6.355l-1.71 4.937-.185-.974c-.316-1.124-1.308-2.345-2.413-2.952l1.565 6.249h1.845l2.744-7.26H9.966z"/>
        <path fill="#FC6" fill-rule="nonzero" d="M7.122 6.919c-.097-.428-.394-.55-.762-.564H3.653l-.028.136C5.737 7.047 7.136 8.388 7.71 10l-.589-3.082z"/>
    </g>
</svg>
