<svg xmlns="http://www.w3.org/2000/svg" width="195" height="32" viewBox="0 0 195 32">
    <defs>
        <linearGradient id="logo" x1="100%" x2="1.716%" y1="0%" y2="0%">
            <stop offset="0%" stop-color="#B42DEF"/>
            <stop offset="100%" stop-color="#5F2FB4"/>
        </linearGradient>
    </defs>
    <path style="fill:url('#logo');" fill-rule="evenodd" d="M37.056 0h-18.34c-.795 0-1.44.647-1.44 1.446V4.34c0 .798.645 1.446 1.44 1.446h2.817c.752 0 1.424.552 1.495 1.305.04.406-.093.81-.366 1.113-.273.303-.66.475-1.067.475h-8.576c-.752 0-1.423.553-1.495 1.305-.04.406.093.81.366 1.113.273.303.66.476 1.066.476h11.457c.752 0 1.423.552 1.495 1.304.04.407-.093.811-.366 1.114-.273.302-.66.475-1.067.475H10.136c-.752 0-1.423.553-1.495 1.305-.04.406.093.81.366 1.113.273.303.66.475 1.067.476h8.575c.752 0 1.424.552 1.496 1.304.04.407-.094.811-.367 1.114-.272.302-.66.475-1.066.475h-2.813c-.752 0-1.424.553-1.496 1.305-.04.406.094.81.366 1.113.273.302.66.475 1.066.476h8.576c.752 0 1.423.552 1.495 1.304.04.407-.094.811-.366 1.114-.273.302-.66.475-1.067.475h-5.758c-.794 0-1.439.648-1.439 1.446v2.894c0 .798.645 1.446 1.44 1.446H41.75c.795 0 1.44-.648 1.44-1.446V6.164a.914.914 0 0 0-.267-.644L37.697.267A.905.905 0 0 0 37.056 0zm-9.702 20.253h-2.88c-.795 0-1.44-.648-1.44-1.447s.645-1.446 1.44-1.446h2.88c.795 0 1.44.647 1.44 1.446 0 .8-.645 1.447-1.44 1.447zM36.84 7.832c-.794 0-1.439-.648-1.439-1.447V1.886c0-.074.044-.14.112-.169a.18.18 0 0 1 .198.04l5.735 5.764a.183.183 0 0 1-.128.31H36.84zm-32.515 3.74h2.872c.795 0 1.44-.647 1.44-1.446 0-.799-.645-1.447-1.44-1.447h-2.88c-.795 0-1.44.648-1.44 1.447s.645 1.447 1.44 1.447h.008zm5.759 8.681H1.44c-.795 0-1.44.648-1.44 1.447s.645 1.447 1.44 1.447h8.638c.795 0 1.44-.648 1.44-1.447 0-.8-.645-1.447-1.44-1.447h.007zM55.406 8.701h6.403c1.806 0 3.221.536 4.145 1.444.76.786 1.19 1.856 1.19 3.113v.042c0 2.371-1.415 3.794-3.406 4.372l3.878 5.465H64.62l-3.532-5.033h-3.157v5.031h-2.525V8.701zm6.219 7.155c1.805 0 2.955-.948 2.955-2.413v-.041c0-1.547-1.108-2.393-2.975-2.393H57.93v4.846l3.694.001zm7.458 2.09v-.038c0-2.99 2.109-5.446 5.085-5.446 3.311 0 4.986 2.614 4.986 5.624 0 .218-.02.436-.04.674h-7.646c.255 1.703 1.452 2.653 2.995 2.653 1.163 0 1.99-.436 2.818-1.247l1.4 1.247c-.986 1.188-2.347 1.96-4.258 1.96-3.015 0-5.34-2.197-5.34-5.425v-.001zm7.71-.772c-.158-1.545-1.064-2.753-2.64-2.753-1.459 0-2.483 1.129-2.7 2.753h5.34zm3.83 2.951v-.04c0-2.257 1.755-3.368 4.297-3.368a8.651 8.651 0 0 1 2.793.436v-.255c0-1.485-.906-2.277-2.582-2.277-1.163 0-2.03.257-2.976.654l-.629-1.88a8.842 8.842 0 0 1 3.921-.853c1.556 0 2.72.415 3.448 1.169.769.752 1.124 1.861 1.124 3.228v6.198h-2.325v-1.309c-.71.853-1.788 1.525-3.389 1.525-1.95.001-3.685-1.128-3.685-3.227h.003zm7.135-.752v-.712a6.583 6.583 0 0 0-2.365-.415c-1.537 0-2.443.653-2.443 1.742v.04c0 1.01.887 1.584 2.03 1.584 1.571 0 2.773-.912 2.773-2.238l.005-.001zM91.48 8.679h2.384v14.458h-2.384V8.679zm5.316 0h10.667v2.331H99.33v3.732h6.776v2.32H99.33v3.748h8.24v2.32H96.803l-.005-14.45zm12.235 13.09l1.064-1.624c1.143.851 2.347 1.287 3.41 1.287 1.024 0 1.615-.436 1.615-1.128v-.04c0-.811-1.104-1.089-2.325-1.46-1.538-.435-3.252-1.07-3.252-3.069v-.04c0-1.98 1.636-3.188 3.705-3.188a7.188 7.188 0 0 1 3.823 1.188l-.946 1.703c-1.006-.614-2.07-.99-2.937-.99-.926 0-1.458.436-1.458 1.03v.039c0 .772 1.123 1.089 2.346 1.485 1.518.475 3.232 1.17 3.232 3.05v.04c0 2.198-1.695 3.287-3.863 3.287a7.288 7.288 0 0 1-4.41-1.569l-.004-.001zm11.062-1.525v-5.502h-1.32V12.68h1.32V9.809h2.385v2.872h2.793v2.061h-2.793v5.13c0 .93.473 1.306 1.28 1.306a3.193 3.193 0 0 0 1.479-.357v1.96c-.591.338-1.242.535-2.148.535-1.747-.002-2.99-.773-2.99-3.072h-.006zm6.65-.119v-.04c0-2.257 1.754-3.368 4.296-3.368a8.651 8.651 0 0 1 2.794.436v-.255c0-1.485-.907-2.277-2.583-2.277-1.163 0-2.03.257-2.975.654l-.62-1.88a8.842 8.842 0 0 1 3.922-.851c1.556 0 2.72.415 3.448 1.169.769.752 1.124 1.861 1.124 3.228v6.198h-2.32v-1.31c-.71.852-1.789 1.524-3.39 1.524-1.956.001-3.69-1.128-3.69-3.227h-.006zm7.134-.752v-.712a6.583 6.583 0 0 0-2.364-.415c-1.538 0-2.444.653-2.444 1.742v.04c0 1.01.887 1.584 2.03 1.584 1.582 0 2.784-.912 2.784-2.238l-.006-.001zm5.053.871v-5.502h-1.32V12.68h1.32V9.809h2.385v2.872h2.793v2.061h-2.793v5.13c0 .93.472 1.306 1.28 1.306a3.193 3.193 0 0 0 1.478-.357v1.96c-.59.338-1.241.535-2.147.535-1.749-.002-2.99-.773-2.99-3.072h-.006zm6.65-2.297v-.04c0-2.99 2.108-5.445 5.085-5.445 3.31 0 4.985 2.614 4.985 5.624 0 .218-.02.436-.039.674h-7.646c.256 1.703 1.453 2.653 2.996 2.653 1.163 0 1.99-.436 2.818-1.247l1.399 1.247c-.986 1.188-2.347 1.96-4.257 1.96-3.014 0-5.337-2.197-5.337-5.425l-.004-.001zm7.71-.773c-.158-1.545-1.064-2.753-2.641-2.753-1.458 0-2.483 1.129-2.7 2.753h5.34zm5.296-8.495h4.789c4.52 0 7.645 3.118 7.645 7.186v.042c0 4.068-3.129 7.228-7.645 7.228h-4.79V8.68zm1.068.992v12.474h3.72c4.007 0 6.535-2.746 6.535-6.196v-.041c0-3.428-2.527-6.237-6.535-6.237h-3.72zm12.835 8.288v-.041c0-2.92 2.257-5.456 5.348-5.456 3.07 0 5.307 2.493 5.307 5.415v.04c0 2.92-2.257 5.456-5.347 5.456-3.073 0-5.308-2.492-5.308-5.414zm9.578 0v-.041c0-2.513-1.87-4.516-4.27-4.516-2.459 0-4.23 2.02-4.23 4.474v.04c0 2.513 1.87 4.517 4.271 4.517 2.457 0 4.226-2.021 4.226-4.474h.003zm2.543 0v-.041c0-2.92 2.319-5.456 5.288-5.456 1.952 0 3.172.898 4.149 1.921l-.712.736c-.894-.92-1.912-1.717-3.457-1.717-2.36 0-4.19 1.982-4.19 4.474v.04c0 2.513 1.892 4.517 4.271 4.517 1.464 0 2.603-.756 3.477-1.737l.692.613c-1.057 1.206-2.318 2.063-4.23 2.063-2.995.001-5.291-2.491-5.291-5.413h.003z"/>
</svg>
