<?xml version="1.0" encoding="UTF-8"?>
<svg width="20px" height="20px" viewBox="0 0 20 20" version="1.1" xmlns="http://www.w3.org/2000/svg" xmlns:xlink="http://www.w3.org/1999/xlink">
    <!-- Generator: Sketch 53 (72520) - https://sketchapp.com -->
    <title>ic/sqaure</title>
    <desc>Created with Sketch.</desc>
    <g id="User-Side" stroke="none" stroke-width="1" fill="none" fill-rule="evenodd">
        <g id="red_wl_locations_01" transform="translate(-622.000000, -619.000000)">
            <g id="Group-5" transform="translate(210.000000, 275.000000)">
                <g id="Group-8" transform="translate(410.000000, 0.000000)">
                    <g id="Group-2" transform="translate(0.000000, 342.000000)">
                        <g id="ic/sqaure">
                            <g id="vector-square-1">
                                <g id="Frames-24px">
                                    <rect id="Rectangle" x="0" y="0" width="24" height="24"></rect>
                                </g>
                                <g id="Solid" transform="translate(2.000000, 2.000000)" fill="#CDCDCD" fill-rule="nonzero">
                                    <path d="M18,14.184 L18,5.816 C19.162,5.402 20,4.302 20,3 C20,1.346 18.654,0 17,0 C15.698,0 14.599,0.838 14.184,2 L5.815,2 C5.401,0.838 4.302,0 3,0 C1.346,0 0,1.346 0,3 C0,4.302 0.838,5.402 2,5.815 L2,14.184 C0.838,14.599 0,15.699 0,17 C0,18.654 1.346,20 3,20 C4.302,20 5.401,19.162 5.815,18 L14.184,18 C14.598,19.162 15.698,20 16.999,20 C18.653,20 19.999,18.654 19.999,17 C20,15.699 19.162,14.599 18,14.184 Z M17,2 C17.552,2 18,2.448 18,3 C18,3.552 17.552,4 17,4 C16.448,4 16,3.552 16,3 C16,2.448 16.448,2 17,2 Z M3,2 C3.552,2 4,2.448 4,3 C4,3.552 3.552,4 3,4 C2.448,4 2,3.552 2,3 C2,2.448 2.448,2 3,2 Z M3,18 C2.448,18 2,17.552 2,17 C2,16.448 2.448,16 3,16 C3.552,16 4,16.448 4,17 C4,17.552 3.552,18 3,18 Z M14.184,16 L5.815,16 C5.514,15.153 4.847,14.486 4,14.184 L4,5.816 C4.847,5.514 5.514,4.847 5.815,4 L14.184,4 C14.486,4.847 15.153,5.514 16,5.815 L16,14.184 C15.153,14.486 14.486,15.153 14.184,16 Z M17,18 C16.448,18 16,17.552 16,17 C16,16.448 16.448,16 17,16 C17.552,16 18,16.448 18,17 C18,17.552 17.552,18 17,18 Z" id="Shape"></path>
                                </g>
                            </g>
                        </g>
                    </g>
                </g>
            </g>
        </g>
    </g>
</svg>