<svg xmlns="http://www.w3.org/2000/svg" width="18" height="13" viewBox="0 0 18 13">
    <g fill="none" fill-rule="evenodd">
        <path d="M-3-6h24v24H-3z"/>
        <path fill="#333" fill-rule="nonzero" d="M7.142 8.897L7.14 3.704l4.863 2.606-4.862 2.587zM17.82 2.804s-.176-1.273-.715-1.834C16.42.233 15.653.23 15.3.187 12.782 0 9.004 0 9.004 0h-.008S5.218 0 2.7.187C2.347.23 1.58.233.895.97.355 1.53.18 2.804.18 2.804S0 4.3 0 5.796v1.402c0 1.496.18 2.991.18 2.991s.176 1.274.715 1.835c.685.736 1.584.713 1.985.79C4.32 12.956 9 13 9 13s3.782-.006 6.301-.193c.352-.043 1.119-.047 1.804-.783.539-.561.715-1.835.715-1.835S18 8.694 18 7.198V5.796c0-1.496-.18-2.992-.18-2.992z"/>
    </g>
</svg>
