<svg xmlns="http://www.w3.org/2000/svg" width="24" height="24" viewBox="0 0 24 24">
    <path fill="#723BD4" fill-rule="nonzero" d="M12-33a.99.99 0 0 0-.396.082l-8.909 3.857a1.154 1.154 0 0 0 0 2.118l8.909 3.861c.254.11.541.11.794 0l8.909-3.861c.42-.183.693-.6.693-1.059 0-.46-.273-.875-.695-1.057l-8.909-3.859A.986.986 0 0 0 12-33zm9.1 8.416a.996.996 0 0 0-.498.078l-.602.26v.002l-8 3.467-8.607-3.725a.997.997 0 1 0-.791 1.83l9.002 3.9c.254.11.541.11.794 0l9-3.9a.998.998 0 0 0-.298-1.912zm0 4.395a.996.996 0 0 0-.498.078L20-19.85v.002l-8 3.465-8.607-3.722a.996.996 0 1 0-.791 1.83l9.002 3.898c.254.11.541.11.794 0l9-3.898a1 1 0 0 0-.298-1.914z"/>
</svg>
